<svg width="618" height="718" viewBox="0 0 618 718" fill="none" xmlns="http://www.w3.org/2000/svg">
<path fill-rule="evenodd" clip-rule="evenodd" d="M205.376 661.623L207.203 663.383L207.346 663.523C240.821 695.6 273.277 717.587 309.987 717.163C346.53 716.743 378.853 694.183 412.307 661.61C458.157 617.183 517.483 557.257 560.343 486.163C603.367 414.803 631.13 329.973 610.24 236.865C539.657 -77.8043 78.711 -78.173 7.75869 236.531C-12.5393 327 13.1047 409.757 53.9997 479.893C94.7407 549.77 151.747 609.097 197.465 653.903C200.129 656.513 202.758 659.077 205.345 661.593L205.376 661.623ZM309 167.337C249.17 167.337 200.667 215.84 200.667 275.671C200.667 335.5 249.17 384.003 309 384.003C368.83 384.003 417.333 335.5 417.333 275.671C417.333 215.84 368.83 167.337 309 167.337Z" fill="#5f58bf"/>
</svg>
