<svg width="196" height="235" viewBox="0 0 196 235" fill="none" xmlns="http://www.w3.org/2000/svg">
    <g filter="url(#filter0_d_5_54)">
        <path d="M97.75 0C45.9735 0 4 41.9735 4 93.75C4 145.527 50.875 187.5 97.75 225C144.625 187.5 191.5 145.527 191.5 93.75C191.5 41.9735 149.527 0 97.75 0ZM97.75 131.25C77.0396 131.25 60.25 114.46 60.25 93.75C60.25 73.0396 77.0396 56.25 97.75 56.25C118.46 56.25 135.25 73.0396 135.25 93.75C135.25 114.46 118.46 131.25 97.75 131.25Z" fill="#05C46B"/>
        <g filter="url(#filter1_d_5_54)">
            <circle cx="97.5" cy="93.5" r="58.5" fill="#FCFCFC"/>
        </g>
        <path d="M131.745 80.9132L91.1239 120.785C88.1159 123.738 83.2364 123.738 80.2255 120.785L59.2569 100.2C56.2477 97.2466 56.2477 92.4562 59.2569 89.5023C62.2666 86.5479 67.1457 86.5479 70.1541 89.5012L85.6763 104.739L120.846 70.215C123.855 67.2606 128.735 67.2628 131.743 70.215C134.752 73.1689 134.752 77.9576 131.745 80.9132Z" fill="#2E3131"/>
    </g>
    <defs>
        <filter id="filter0_d_5_54" x="0" y="0" width="195.5" height="235" filterUnits="userSpaceOnUse" color-interpolation-filters="sRGB">
            <feFlood flood-opacity="0" result="BackgroundImageFix"/>
            <feColorMatrix in="SourceAlpha" type="matrix" values="0 0 0 0 0 0 0 0 0 0 0 0 0 0 0 0 0 0 127 0" result="hardAlpha"/>
            <feOffset dy="6"/>
            <feGaussianBlur stdDeviation="2"/>
            <feComposite in2="hardAlpha" operator="out"/>
            <feColorMatrix type="matrix" values="0 0 0 0 0 0 0 0 0 0 0 0 0 0 0 0 0 0 0.25 0"/>
            <feBlend mode="normal" in2="BackgroundImageFix" result="effect1_dropShadow_5_54"/>
            <feBlend mode="normal" in="SourceGraphic" in2="effect1_dropShadow_5_54" result="shape"/>
        </filter>
        <filter id="filter1_d_5_54" x="35" y="35" width="125" height="125" filterUnits="userSpaceOnUse" color-interpolation-filters="sRGB">
            <feFlood flood-opacity="0" result="BackgroundImageFix"/>
            <feColorMatrix in="SourceAlpha" type="matrix" values="0 0 0 0 0 0 0 0 0 0 0 0 0 0 0 0 0 0 127 0" result="hardAlpha"/>
            <feOffset dy="4"/>
            <feGaussianBlur stdDeviation="2"/>
            <feComposite in2="hardAlpha" operator="out"/>
            <feColorMatrix type="matrix" values="0 0 0 0 0 0 0 0 0 0 0 0 0 0 0 0 0 0 0.25 0"/>
            <feBlend mode="normal" in2="BackgroundImageFix" result="effect1_dropShadow_5_54"/>
            <feBlend mode="normal" in="SourceGraphic" in2="effect1_dropShadow_5_54" result="shape"/>
        </filter>
    </defs>
</svg>
